<mxfile host="app.diagrams.net" modified="2023-06-15T13:58:40.451Z" agent="Mozilla/5.0 (Macintosh; Intel Mac OS X 10_15_7) AppleWebKit/537.36 (KHTML, like Gecko) Chrome/114.0.0.0 Safari/537.36" version="21.4.0" etag="kprt3j3Vpw0qAp_sZvm4" type="github">
  <diagram name="Page-1" id="cqT7LNDigBohw2mFp9kC">
    <mxGraphModel>
      <root>
        <mxCell id="0" />
        <mxCell id="1" parent="0" />
      </root>
    </mxGraphModel>
  </diagram>
</mxfile>
